<?xml version="1.0" encoding="UTF-8"?>
<svg width="280px" height="38px" viewBox="0 0 280 38" version="1.1" xmlns="http://www.w3.org/2000/svg" xmlns:xlink="http://www.w3.org/1999/xlink">
    <title>Group 2</title>
    <g id="Page-1" stroke="none" stroke-width="1" fill="none" fill-rule="evenodd">
        <g id="Group-2" transform="translate(0.524000, 0.897000)" fill="#000000" fill-rule="nonzero">
            <g id="Group" transform="translate(236.991000, 0.032000)">
                <path d="M1.086,14.351 L1.086,36.263 L8.113,36.263 L8.113,21.674 L33.688,21.674 L33.688,36.263 L40.71,36.263 L40.71,14.389 L1.086,14.351 M7.33,7.263 L34.35,7.263 C38.103,6.517 40.894,3.204 41.681,0 L5.68434189e-14,0 C0.779,3.206 3.611,6.517 7.33,7.263" id="Shape"></path>
            </g>
            <path d="M216.795,36.309 C220.338,34.807 222.244,32.209 222.975,29.168 L191.457,29.168 L191.478,0.051 L184.413,0.071 L184.413,36.309 L216.795,36.309 M131.874,7.197 L156.828,7.197 C160.59,6.104 163.749,3.238 164.519,0.061 L124.878,0.061 L124.878,21.476 L157.322,21.476 L157.322,28.991 L131.873,29.012 C127.885,30.124 124.503,32.802 122.816,36.339 L124.878,36.301 L164.293,36.301 L164.293,14.357 L131.873,14.357 L131.873,7.197" id="Shape"></path>
            <g id="Group" transform="translate(62.937000, 0.000000)">
                <path d="M7.334,7.266 L34.345,7.266 C38.103,6.517 40.896,3.207 41.679,5.68434189e-14 L-1.42108547e-14,5.68434189e-14 C0.778,3.207 3.612,6.517 7.334,7.266 M7.334,21.588 L34.345,21.588 C38.103,20.847 40.896,17.534 41.679,14.325 L-1.42108547e-14,14.325 C0.778,17.536 3.612,20.847 7.334,21.588 M7.334,36.305 L34.345,36.305 C38.103,35.558 40.896,32.246 41.679,29.041 L-1.42108547e-14,29.041 C0.778,32.249 3.612,35.558 7.334,36.305" id="Shape"></path>
            </g>
            <path d="M0,0.089 C0.812,3.256 3.555,6.492 7.316,7.304 L18.686,7.304 L19.266,7.533 L19.266,36.224 L26.366,36.224 L26.366,7.533 L27.012,7.304 L38.392,7.304 C42.196,6.324 44.878,3.256 45.676,0.089 L45.676,0.019 L0,0.019 L0,0.089" id="Path"></path>
        </g>
    </g>
</svg>